name Run_300 02_newCOP3_v24.mot
datacolumns 19
datarows 109
range 4.065 4.173
DataType=double
version=3
OpenSimVersion=4.3-2021-08-27-4bc7ad9
endheader
time	R_ground_force_vx	R_ground_force_vy	R_ground_force_vz	R_ground_force_px	R_ground_force_py	R_ground_force_pz	L_ground_force_vx	L_ground_force_vy	L_ground_force_vz	L_ground_force_px	L_ground_force_py	L_ground_force_pz	R_ground_torque_x	R_ground_torque_y	R_ground_torque_z	L_ground_torque_x	L_ground_torque_y	L_ground_torque_z
4.065	0	0	0	0	0	0	0	0	0	0	0	0	0	0	0	0	0	0
4.066	0	0	0	0	0	0	0	0	0	0	0	0	0	0	0	0	0	0
4.067	0	0	0	0	0	0	0	0	0	0	0	0	0	0	0	0	0	0
4.068	0	0	0	0	0	0	0	0	0	0	0	0	0	0	0	0	0	0
4.069	0	0	0	0	0	0	0	0	0	0	0	0	0	0	0	0	0	0
4.07	0	0	0	0	0	0	0	0	0	0	0	0	0	0	0	0	0	0
4.071	0	0	0	0	0	0	0	0	0	0	0	0	0	0	0	0	0	0
4.072	0	0	0	0	0	0	0	0	0	0	0	0	0	0	0	0	0	0
4.073	0	0	0	0	0	0	0	0	0	0	0	0	0	0	0	0	0	0
4.074	0	0	0	0	0	0	0	0	0	0	0	0	0	0	0	0	0	0
4.075	0	0	0	0	0	0	0	0	0	0	0	0	0	0	0	0	0	0
4.076	0	0	0	0	0	0	0	0	0	0	0	0	0	0	0	0	0	0
4.077	0	0	0	0	0	0	0	0	0	0	0	0	0	0	0	0	0	0
4.078	0	0	0	0	0	0	0	0	0	0	0	0	0	0	0	0	0	0
4.079	0	0	0	0	0	0	0	0	0	0	0	0	0	0	0	0	0	0
4.08	0	0	0	0	0	0	0	0	0	0	0	0	0	0	0	0	0	0
4.081	0	0	0	0	0	0	0	0	0	0	0	0	0	0	0	0	0	0
4.082	0	0	0	0	0	0	0	0	0	0	0	0	0	0	0	0	0	0
4.083	0	0	0	0	0	0	0	0	0	0	0	0	0	0	0	0	0	0
4.084	0	0	0	0	0	0	0	0	0	0	0	0	0	0	0	0	0	0
4.085	0	0	0	0	0	0	0	0	0	0	0	0	0	0	0	0	0	0
4.086	0	0	0	0	0	0	0	0	0	0	0	0	0	0	0	0	0	0
4.087	0	0	0	0	0	0	0	0	0	0	0	0	0	0	0	0	0	0
4.088	0	0	0	0	0	0	0	0	0	0	0	0	0	0	0	0	0	0
4.089	0	0	0	0	0	0	0	0	0	0	0	0	0	0	0	0	0	0
4.09	0	0	0	0	0	0	0	0	0	0	0	0	0	0	0	0	0	0
4.091	0	0	0	0	0	0	0	0	0	0	0	0	0	0	0	0	0	0
4.092	0	0	0	0	0	0	0	0	0	0	0	0	0	0	0	0	0	0
4.093	0	0	0	0	0	0	0	0	0	0	0	0	0	0	0	0	0	0
4.094	0	0	0	0	0	0	0	0	0	0	0	0	0	0	0	0	0	0
4.095	0	0	0	0	0	0	0	0	0	0	0	0	0	0	0	0	0	0
4.096	0	0	0	0	0	0	0	0	0	0	0	0	0	0	0	0	0	0
4.097	0	0	0	0	0	0	0	0	0	0	0	0	0	0	0	0	0	0
4.098	0	0	0	0	0	0	0	0	0	0	0	0	0	0	0	0	0	0
4.099	0	0	0	0	0	0	0	0	0	0	0	0	0	0	0	0	0	0
4.1	0	0	0	0	0	0	0	0	0	0	0	0	0	0	0	0	0	0
4.101	0	0	0	0	0	0	0	0	0	0	0	0	0	0	0	0	0	0
4.102	0	0	0	0	0	0	0	0	0	0	0	0	0	0	0	0	0	0
4.103	0	0	0	0	0	0	0	0	0	0	0	0	0	0	0	0	0	0
4.104	0	0	0	0	0	0	0	0	0	0	0	0	0	0	0	0	0	0
4.105	0	0	0	0	0	0	0	0	0	0	0	0	0	0	0	0	0	0
4.106	0	0	0	0	0	0	0	0	0	0	0	0	0	0	0	0	0	0
4.107	0	0	0	0	0	0	0	0	0	0	0	0	0	0	0	0	0	0
4.108	0	0	0	0	0	0	0	0	0	0	0	0	0	0	0	0	0	0
4.109	0	0	0	0	0	0	0	0	0	0	0	0	0	0	0	0	0	0
4.11	0	0	0	0	0	0	0	0	0	0	0	0	0	0	0	0	0	0
4.111	0	0	0	0	0	0	0	0	0	0	0	0	0	0	0	0	0	0
4.112	0	0	0	0	0	0	0	0	0	0	0	0	0	0	0	0	0	0
4.113	0	0	0	0	0	0	0	0	0	0	0	0	0	0	0	0	0	0
4.114	0	0	0	0	0	0	0	0	0	0	0	0	0	0	0	0	0	0
4.115	0	0	0	0	0	0	0	0	0	0	0	0	0	0	0	0	0	0
4.116	0	0	0	0	0	0	0	0	0	0	0	0	0	0	0	0	0	0
4.117	0	0	0	0	0	0	0	0	0	0	0	0	0	0	0	0	0	0
4.118	0	0	0	0	0	0	0	0	0	0	0	0	0	0	0	0	0	0
4.119	0	0	0	0	0	0	0	0	0	0	0	0	0	0	0	0	0	0
4.12	0	0	0	0	0	0	0	0	0	0	0	0	0	0	0	0	0	0
4.121	0	0	0	0	0	0	0	0	0	0	0	0	0	0	0	0	0	0
4.122	0	0	0	0	0	0	0	0	0	0	0	0	0	0	0	0	0	0
4.123	0	0	0	0	0	0	0	0	0	0	0	0	0	0	0	0	0	0
4.124	0	0	0	0	0	0	0	0	0	0	0	0	0	0	0	0	0	0
4.125	0	0	0	0	0	0	0	0	0	0	0	0	0	0	0	0	0	0
4.126	0	0	0	0	0	0	0	0	0	0	0	0	0	0	0	0	0	0
4.127	0	0	0	0	0	0	0	0	0	0	0	0	0	0	0	0	0	0
4.128	0	0	0	0	0	0	0	0	0	0	0	0	0	0	0	0	0	0
4.129	0	0	0	0	0	0	0	0	0	0	0	0	0	0	0	0	0	0
4.13	0	0	0	0	0	0	0	0	0	0	0	0	0	0	0	0	0	0
4.131	0	0	0	0	0	0	0	0	0	0	0	0	0	0	0	0	0	0
4.132	0	0	0	0	0	0	0	0	0	0	0	0	0	0	0	0	0	0
4.133	0	0	0	0	0	0	0	0	0	0	0	0	0	0	0	0	0	0
4.134	0	0	0	0	0	0	0	0	0	0	0	0	0	0	0	0	0	0
4.135	0	0	0	0	0	0	0	0	0	0	0	0	0	0	0	0	0	0
4.136	0	0	0	0	0	0	0	0	0	0	0	0	0	0	0	0	0	0
4.137	0	0	0	0	0	0	0	0	0	0	0	0	0	0	0	0	0	0
4.138	0	0	0	0	0	0	0	0	0	0	0	0	0	0	0	0	0	0
4.139	0	0	0	0	0	0	0	0	0	0	0	0	0	0	0	0	0	0
4.14	0	0	0	0	0	0	0	0	0	0	0	0	0	0	0	0	0	0
4.141	0	0	0	0	0	0	0	0	0	0	0	0	0	0	0	0	0	0
4.142	0	0	0	0	0	0	0	0	0	0	0	0	0	0	0	0	0	0
4.143	0	0	0	0	0	0	0	0	0	0	0	0	0	0	0	0	0	0
4.144	0	0	0	0	0	0	0	0	0	0	0	0	0	0	0	0	0	0
4.145	0	0	0	0	0	0	0	0	0	0	0	0	0	0	0	0	0	0
4.146	0	0	0	0	0	0	0	0	0	0	0	0	0	0	0	0	0	0
4.147	0	0	0	0	0	0	-7.710838	51.5779	0.5231	0.878494	0	-0.480262	0	0	0	-0	1.161073	-0
4.148	0	0	0	0	0	0	-7.956698	57.492939	0.585575	0.857569	0	-0.059593	0	0	0	-0	0.9130509999999999	-0
4.149	0	0	0	0	0	0	-8.138807999999999	64.00103	0.704331	0.868877	0	-0.294967	0	0	0	-0	0.664689	-0
4.15	0	0	0	0	0	0	-8.250209999999999	71.143394	0.887128	0.870014	0	-0.323029	0	0	0	-0	0.417829	-0
4.151	0	0	0	0	0	0	-8.285289000000001	78.961243	1.141161	0.870295	0	-0.333469	0	0	0	-0	0.174208	-0
4.152	0	0	0	0	0	0	-8.240093	87.495377	1.472859	0.870328	0	-0.338672	0	0	0	0	-0.06456199999999999	0
4.153	0	0	0	0	0	0	-8.112610999999999	96.785721	1.887709	0.870258	0	-0.341634	0	0	0	0	-0.297002	0
4.154	0	0	0	0	0	0	-7.90301	106.870865	2.390085	0.870139	0	-0.343445	0	0	0	0	-0.521778	0
4.155	0	0	0	0	0	0	-7.613829	117.787491	2.983102	0.869993	0	-0.344591	0	0	0	0	-0.7377050000000001	0
4.156	0	0	0	0	0	0	-7.250093	129.569916	3.668496	0.869833	0	-0.345325	0	0	0	0	-0.943754	0
4.157	0	0	0	0	0	0	-6.819383	142.249481	4.44653	0.869665	0	-0.345788	0	0	0	0	-1.139047	0
4.158	0	0	0	0	0	0	-6.331823	155.854034	5.315927	0.869493	0	-0.346069	0	0	0	0	-1.322858	0
4.159	0	0	0	0	0	0	-5.80001	170.407333	6.273848	0.869319	0	-0.34622	0	0	0	0	-1.49461	0
4.16	0	0	0	0	0	0	-5.238883	185.928574	7.315891	0.869146	0	-0.346281	0	0	0	0	-1.653871	0
4.161	0	0	0	0	0	0	-4.665539	202.431824	8.436143	0.868973	0	-0.346275	0	0	0	0	-1.800339	0
4.162	0	0	0	0	0	0	-4.098999	219.925552	9.627253	0.868803	0	-0.346222	0	0	0	0	-1.933842	0
4.163	0	0	0	0	0	0	-3.559947	238.412155	10.880549	0.868635	0	-0.346134	0	0	0	0	-2.054325	0
4.164	0	0	0	0	0	0	-3.07043	257.887512	12.186193	0.86847	0	-0.346022	0	0	0	0	-2.161839	0
4.165	0	0	0	0	0	0	-2.653546	278.340607	13.533353	0.8683070000000001	0	-0.345891	0	0	0	0	-2.256529	0
4.166	0	0	0	0	0	0	-2.333121	299.753174	14.910424	0.8681489999999999	0	-0.345749	0	0	0	0	-2.338629	0
4.167	0	0	0	0	0	0	-2.133373	322.099274	16.305256	0.867993	0	-0.345599	0	0	0	0	-2.408442	0
4.168	0	0	0	0	0	0	-2.078576	345.345184	17.705406	0.867841	0	-0.345445	0	0	0	0	-2.466337	0
4.169	0	0	0	0	0	0	-2.192728	369.449036	19.09841	0.867692	0	-0.345289	0	0	0	0	-2.512734	0
4.17	0	0	0	0	0	0	-2.499213	394.360596	20.47204	0.867546	0	-0.345134	0	0	0	0	-2.548096	0
4.171	0	0	0	0	0	0	-3.020466	420.021332	21.814589	0.867403	0	-0.34498	0	0	0	0	-2.572918	0
4.172	0	0	0	0	0	0	-3.777642	446.364319	23.115097	0.867262	0	-0.34483	0	0	0	0	-2.587722	0
4.173	0	0	0	0	0	0	-4.790277	473.31427	24.3636	0.867123	0	-0.344685	0	0	0	0	-2.593042	0
